<?xml version="1.0" standalone="no"?>
<!DOCTYPE svg PUBLIC "-//W3C//DTD SVG 20010904//EN"
 "http://www.w3.org/TR/2001/REC-SVG-20010904/DTD/svg10.dtd">
<svg version="1.0" xmlns="http://www.w3.org/2000/svg"
 width="1280.000000pt" height="666.000000pt" viewBox="0 0 1280.000000 666.000000"
 preserveAspectRatio="xMidYMid meet">
<metadata>
Created by potrace 1.15, written by Peter Selinger 2001-2017
</metadata>
<g transform="translate(0.000000,666.000000) scale(0.100000,-0.100000)"
fill="#000000" stroke="none">
<path d="M6391 6645 c-272 -61 -518 -201 -584 -331 -46 -92 -48 -249 -4 -324
29 -51 42 -108 29 -128 -12 -18 -115 -29 -384 -41 -152 -7 -227 -7 -248 1 -20
7 -171 8 -458 5 -436 -5 -552 -13 -719 -53 -38 -9 -120 -25 -183 -35 -63 -10
-147 -29 -186 -43 -39 -14 -105 -30 -145 -36 -121 -18 -159 -29 -203 -59 -22
-16 -57 -32 -77 -35 -20 -4 -62 -22 -94 -41 -32 -20 -112 -62 -179 -95 -67
-32 -177 -95 -245 -140 -69 -44 -130 -80 -137 -80 -7 0 -29 -13 -47 -30 -19
-16 -38 -30 -42 -30 -5 0 -42 -26 -84 -58 -42 -32 -105 -76 -141 -97 -161 -95
-302 -212 -560 -467 -145 -143 -323 -358 -394 -475 -95 -159 -216 -450 -216
-522 0 -43 -32 -73 -68 -65 -37 9 -107 51 -167 99 -169 137 -213 164 -283 175
-37 6 -103 18 -146 27 -86 17 -205 13 -269 -10 -55 -19 -126 -73 -143 -111
-27 -56 -13 -97 53 -153 31 -27 91 -79 133 -118 94 -85 151 -133 253 -209 42
-32 141 -124 220 -206 78 -81 170 -167 205 -191 34 -23 76 -58 93 -78 44 -52
102 -148 124 -206 10 -27 29 -67 42 -88 13 -20 32 -59 42 -86 22 -54 49 -96
107 -166 95 -115 135 -151 206 -189 129 -68 133 -74 157 -175 12 -48 21 -102
21 -118 0 -40 -38 -79 -91 -93 -24 -7 -50 -14 -56 -16 -17 -5 -16 -37 2 -80
16 -40 69 -68 149 -80 71 -10 90 -33 83 -101 -8 -75 -44 -131 -129 -200 -72
-58 -73 -60 -76 -111 -4 -67 18 -116 96 -214 47 -59 70 -79 98 -87 20 -6 44
-17 53 -25 9 -8 51 -26 93 -40 90 -30 315 -140 437 -215 120 -73 174 -90 335
-107 78 -8 168 -19 201 -24 33 -5 116 -14 185 -20 69 -5 154 -19 188 -30 35
-11 74 -20 87 -20 13 0 26 -4 29 -9 3 -4 33 -11 66 -14 33 -4 70 -13 83 -21
30 -20 104 -32 362 -61 121 -14 256 -32 301 -40 61 -11 184 -16 490 -19 251
-3 432 -9 469 -16 76 -14 634 -14 796 1 84 8 123 8 137 0 29 -16 218 -14 299
3 230 48 339 53 654 26 120 -11 161 -10 360 9 123 12 271 30 329 41 58 11 168
24 244 30 76 6 143 13 148 16 15 10 222 44 268 44 25 0 81 7 125 16 44 8 139
21 210 29 72 8 180 25 240 39 178 39 332 65 463 77 143 13 223 31 380 88 62
23 121 41 131 41 24 0 197 53 241 74 119 56 197 104 216 133 15 23 23 56 28
113 l7 81 -34 38 c-25 28 -39 59 -56 122 -12 46 -42 146 -67 221 -24 75 -44
143 -44 152 0 30 77 162 137 236 33 41 98 104 143 140 64 50 96 85 139 150 46
70 72 97 151 156 52 39 149 122 214 183 66 62 134 120 150 128 37 19 136 94
156 118 8 9 39 34 70 55 122 83 294 195 331 216 10 6 27 18 36 27 32 28 307
174 363 192 57 18 189 75 295 126 33 16 67 29 76 29 28 0 134 75 172 122 24
29 53 52 82 62 49 19 85 57 85 90 0 58 -93 133 -192 155 -48 11 -102 4 -271
-34 -37 -8 -125 -22 -195 -30 -140 -17 -210 -43 -295 -108 -27 -20 -70 -43
-97 -51 -27 -8 -70 -27 -95 -41 -42 -25 -51 -27 -120 -20 -106 10 -169 -10
-225 -71 -23 -25 -44 -44 -46 -41 -10 10 -5 87 9 142 41 156 50 409 17 512
-10 33 -31 117 -45 185 -14 67 -39 150 -54 183 -16 33 -34 76 -40 96 -45 142
-327 452 -519 569 -29 18 -59 45 -67 61 -8 15 -41 43 -74 63 -33 19 -84 55
-115 79 -30 25 -88 64 -128 88 -40 23 -84 49 -98 59 -14 9 -45 24 -70 33 -25
8 -72 27 -105 41 -118 49 -319 99 -463 116 -50 5 -95 19 -150 45 -117 56 -232
92 -334 105 -51 6 -118 18 -148 25 -30 8 -102 16 -160 18 -86 4 -113 9 -150
28 -42 22 -55 24 -180 22 -74 -1 -169 -7 -210 -13 -41 -6 -178 -13 -304 -17
-215 -6 -230 -5 -243 12 -20 28 -16 64 14 125 21 44 27 70 27 130 1 69 -3 82
-41 160 -45 91 -119 208 -162 253 -55 59 -306 204 -476 274 -16 7 -46 23 -65
35 -33 22 -46 23 -255 25 -162 2 -237 -1 -284 -12z m504 -80 c28 -9 77 -33
110 -52 33 -19 82 -44 110 -55 249 -97 384 -227 461 -446 28 -79 30 -121 8
-188 -22 -65 -38 -82 -109 -114 -143 -65 -239 -76 -405 -47 -52 9 -192 21
-310 26 -129 6 -259 19 -324 31 -60 11 -134 21 -165 22 -71 2 -81 7 -125 67
-30 40 -53 58 -122 91 -64 32 -91 52 -110 80 -56 84 -69 196 -33 290 41 109
109 155 359 239 102 35 192 67 200 72 8 6 100 8 210 6 154 -3 206 -8 245 -22z
m-1020 -850 c230 -26 475 -72 560 -105 17 -7 134 -15 275 -20 159 -6 268 -14
311 -24 129 -31 425 -39 749 -22 497 27 694 35 705 28 14 -9 116 -31 195 -42
36 -4 85 -13 110 -19 25 -5 90 -12 145 -15 71 -3 122 -12 175 -31 41 -14 111
-35 155 -46 44 -11 115 -34 158 -51 43 -16 101 -34 130 -39 225 -37 334 -67
436 -119 31 -15 77 -33 101 -40 24 -7 53 -18 64 -26 11 -8 28 -14 38 -14 27 0
82 -37 115 -78 17 -21 100 -85 184 -143 85 -57 192 -140 239 -184 47 -45 134
-125 193 -180 100 -91 112 -106 152 -189 24 -50 57 -140 75 -201 17 -60 44
-144 60 -185 53 -133 62 -244 36 -415 -16 -104 -81 -356 -103 -400 -21 -41
-63 -85 -82 -85 -35 0 -144 -87 -291 -232 -135 -132 -163 -165 -205 -243 -28
-49 -65 -110 -84 -135 -43 -56 -110 -184 -141 -270 -36 -102 -36 -102 -268
-190 -62 -23 -103 -32 -155 -33 l-72 -2 -3 29 c-2 15 -1 40 3 53 3 14 93 113
205 225 194 195 201 203 245 296 25 52 69 131 99 176 66 99 121 236 135 336 6
41 19 138 31 215 30 208 40 337 29 385 -20 90 -110 251 -173 309 -42 40 -43 2
-1 -72 46 -84 69 -188 60 -282 -3 -39 -10 -77 -15 -84 -11 -18 -201 -11 -224
8 -29 24 -20 69 24 112 69 69 47 116 -24 51 -56 -51 -66 -56 -163 -81 -85 -22
-168 -27 -192 -12 -19 12 -6 73 24 109 13 15 84 68 159 116 74 49 137 95 141
104 3 9 -1 22 -9 30 -13 13 -20 13 -61 -2 -25 -10 -76 -40 -113 -67 -158 -116
-182 -124 -182 -60 0 54 35 101 100 134 59 29 129 93 161 145 24 37 57 49 91
32 12 -7 54 -40 91 -72 37 -33 71 -58 74 -54 19 19 -86 179 -221 336 -118 136
-177 190 -210 190 -12 0 -67 27 -121 59 -55 32 -132 77 -170 99 -39 22 -107
71 -150 109 -44 38 -108 88 -142 111 -34 23 -65 47 -68 52 -11 17 -121 69
-171 80 -52 12 -210 76 -234 95 -8 7 -44 18 -80 25 -35 6 -114 29 -174 51
-148 53 -318 67 -500 43 -94 -13 -132 -14 -183 -6 -63 11 -113 3 -113 -16 0
-16 35 -41 117 -81 73 -36 126 -69 368 -225 39 -24 122 -73 185 -107 63 -34
131 -70 150 -80 41 -23 110 -88 110 -105 0 -7 36 -52 81 -100 44 -48 99 -111
120 -141 22 -29 67 -79 99 -110 63 -60 131 -176 165 -283 10 -30 35 -94 57
-142 21 -49 45 -118 53 -155 17 -79 19 -280 4 -338 -6 -22 -15 -65 -20 -95
-13 -74 -53 -159 -111 -239 -56 -77 -65 -111 -48 -191 16 -76 2 -126 -43 -145
-38 -16 -66 -9 -72 19 -2 11 -6 138 -8 281 -4 283 -7 305 -73 425 -32 60 -131
156 -168 166 -33 8 -215 -29 -297 -61 -68 -27 -109 -51 -194 -113 -32 -24 -75
-50 -95 -58 -78 -33 -133 -110 -265 -369 -84 -166 -185 -397 -185 -425 0 -22
-40 -89 -66 -109 -15 -12 -37 -21 -49 -21 -29 0 -110 55 -142 96 -27 36 -27
40 -7 151 l6 32 -53 3 c-47 3 -54 6 -57 25 -5 31 24 80 55 95 19 10 27 20 25
33 -4 24 -41 65 -58 65 -19 0 -44 41 -44 72 0 31 24 42 81 36 33 -3 35 -5 49
-66 18 -77 52 -112 108 -112 76 0 195 172 227 330 9 43 24 83 35 95 14 15 24
50 35 121 24 163 35 331 26 382 -5 26 -12 92 -16 147 -8 99 -8 100 -92 268
-90 179 -216 378 -342 535 -71 89 -303 312 -427 411 -34 27 -53 50 -57 70 -13
63 -104 88 -188 51 -45 -19 -65 -21 -158 -18 -100 3 -109 5 -158 37 l-52 33
-68 -22 c-37 -13 -104 -42 -148 -65 -86 -46 -124 -58 -142 -47 -6 4 -21 34
-34 67 -12 33 -27 66 -33 74 -14 18 -123 8 -168 -15 -74 -38 -210 -138 -318
-234 -63 -56 -159 -131 -213 -166 -114 -76 -244 -201 -335 -324 -34 -47 -85
-112 -113 -145 -28 -33 -66 -89 -86 -125 -20 -36 -54 -96 -76 -135 -59 -101
-64 -112 -91 -206 -14 -46 -43 -116 -65 -154 -23 -38 -41 -75 -41 -81 0 -33
-68 -165 -106 -208 -45 -49 -53 -73 -32 -94 51 -51 145 49 182 192 18 66 30
90 71 139 28 32 33 47 37 106 6 75 12 89 132 286 64 107 152 205 182 205 28 0
15 -62 -32 -149 -25 -47 -56 -99 -69 -116 -12 -16 -46 -78 -74 -138 -29 -59
-65 -116 -79 -128 -24 -19 -26 -26 -28 -107 -1 -61 -8 -105 -23 -147 -12 -33
-31 -112 -42 -175 -24 -142 -43 -208 -78 -279 -19 -39 -26 -64 -21 -81 6 -24
-3 -86 -14 -97 -3 -4 -18 -1 -32 6 -25 11 -26 14 -20 65 7 53 7 53 -28 74 -24
14 -36 29 -36 43 0 59 -147 268 -276 390 -101 96 -222 138 -405 139 l-67 0
-56 -62 c-31 -35 -78 -92 -104 -128 -26 -35 -58 -70 -72 -77 -14 -7 -57 -13
-97 -13 -62 0 -75 3 -93 22 -20 22 -25 44 -14 72 4 11 19 16 50 16 l45 0 -7
63 -6 62 35 17 c19 9 46 32 59 50 31 42 68 129 68 161 0 28 66 202 110 292 69
138 193 283 419 489 173 158 276 246 328 277 21 12 52 34 68 47 17 14 82 50
145 81 64 31 129 66 145 78 85 60 428 215 501 226 18 3 94 26 170 51 77 26
158 51 181 57 48 11 138 70 138 90 0 25 -64 59 -98 52 -181 -32 -356 -93 -582
-204 -88 -42 -182 -84 -210 -92 -27 -8 -76 -31 -108 -50 -33 -20 -72 -39 -88
-42 -40 -9 -79 17 -79 51 0 32 -42 74 -75 74 -36 0 -132 -35 -176 -65 -21 -13
-64 -34 -96 -46 -32 -11 -101 -36 -153 -56 -208 -76 -512 -176 -635 -209 -203
-54 -430 -151 -565 -238 -30 -20 -60 -36 -67 -36 -7 0 -41 -24 -75 -53 -35
-29 -71 -56 -81 -60 -23 -9 -345 -287 -470 -407 -54 -52 -127 -129 -161 -170
-33 -41 -98 -115 -143 -164 -84 -91 -153 -203 -153 -250 0 -31 29 -49 65 -40
33 8 74 55 169 194 113 164 353 407 450 455 72 37 91 41 101 25 12 -19 -7 -52
-72 -123 -73 -81 -213 -289 -213 -316 0 -7 -22 -54 -50 -105 -61 -112 -90
-195 -90 -252 0 -61 -25 -171 -56 -249 -29 -72 -75 -116 -139 -134 -18 -5 -65
-36 -105 -69 -93 -78 -149 -106 -196 -98 -47 9 -95 54 -132 124 -81 151 -88
340 -21 557 10 33 22 110 27 172 8 102 12 119 50 195 60 119 106 183 273 378
119 138 282 292 411 386 40 30 94 73 120 96 54 48 95 75 191 124 37 19 84 49
105 67 110 97 418 294 527 337 71 28 251 100 350 140 69 29 448 154 515 171
19 5 163 20 320 34 305 27 667 33 810 15 112 -15 198 -13 370 9 193 24 299 25
465 6z m1011 -520 c14 -19 57 -58 95 -86 67 -49 85 -76 77 -116 -2 -9 -15 -22
-30 -27 -23 -8 -41 -3 -112 32 l-85 43 -38 -21 c-21 -11 -45 -20 -53 -20 -18
0 -71 53 -89 87 -15 30 -14 78 3 93 11 9 156 45 198 49 4 1 19 -15 34 -34z
m-957 1 c26 -31 -35 -86 -94 -86 -23 0 -26 4 -23 27 2 18 15 35 37 50 39 26
64 29 80 9z m2627 -31 c34 -8 86 -25 115 -38 30 -13 85 -27 123 -31 38 -4 83
-13 100 -20 17 -7 49 -16 71 -20 22 -4 45 -12 51 -17 6 -5 42 -20 80 -33 96
-33 198 -81 214 -101 8 -9 31 -25 51 -36 21 -10 42 -25 46 -32 4 -7 28 -28 53
-47 25 -19 48 -39 52 -45 13 -17 9 -72 -6 -84 -8 -7 -101 -15 -237 -21 -123
-6 -260 -13 -304 -16 l-80 -5 -77 50 c-56 36 -82 60 -98 90 -11 22 -44 59 -73
81 -28 21 -63 48 -77 58 -14 11 -36 23 -50 27 -14 4 -54 22 -90 41 -36 18 -82
40 -103 50 -87 39 -124 114 -75 148 30 21 228 22 314 1z m-2168 -47 c3 -29 -2
-43 -22 -63 -30 -30 -64 -32 -116 -5 -48 24 -54 34 -39 58 23 36 61 52 119 49
l55 -2 3 -37z m-2338 -182 c0 -21 -94 -120 -147 -155 -52 -35 -129 -44 -139
-16 -19 48 35 115 126 155 72 33 160 41 160 16z m-894 -181 c14 -37 -53 -92
-118 -97 -29 -3 -33 0 -36 24 -2 15 2 36 8 47 19 36 135 56 146 26z m4289 -66
c61 -56 145 -169 185 -249 18 -36 58 -103 90 -150 80 -119 96 -155 114 -247
33 -175 28 -487 -9 -594 -8 -23 -15 -53 -15 -68 0 -42 -64 -215 -100 -271 -37
-57 -65 -64 -88 -20 -20 38 5 218 50 360 6 19 10 52 9 72 -1 21 6 63 15 94 31
106 1 350 -57 469 -17 33 -39 95 -50 139 -21 84 -56 160 -95 213 -13 17 -24
38 -24 45 0 21 -55 110 -99 160 -46 51 -49 62 -23 77 31 18 52 12 97 -30z
m-1218 25 c46 -13 34 -61 -31 -123 -28 -27 -45 -35 -85 -39 -59 -5 -81 8 -81
47 0 49 49 93 125 112 40 9 46 10 72 3z m517 -20 c169 -17 206 -25 206 -48 0
-39 -126 -135 -205 -157 -26 -7 -39 -19 -49 -43 -15 -37 -52 -67 -119 -95 -25
-11 -58 -36 -73 -56 -42 -52 -86 -77 -131 -73 -37 3 -38 4 -37 41 2 46 29 78
81 96 21 7 58 33 83 57 46 44 119 83 156 84 31 0 34 8 17 48 -29 71 -33 71
-125 10 -97 -64 -153 -88 -208 -88 -51 0 -51 12 0 81 23 30 57 75 76 101 39
52 77 70 134 63 19 -3 106 -12 194 -21z m-3029 -28 c18 -13 17 -15 -18 -58
-20 -25 -37 -50 -37 -56 0 -19 -49 -69 -79 -81 -24 -10 -34 -10 -60 3 -26 14
-31 23 -31 51 0 49 40 89 125 125 82 35 76 34 100 16z m3509 -15 c71 -25 88
-37 127 -91 51 -71 62 -104 45 -144 -17 -40 -57 -72 -155 -121 -86 -43 -94
-39 -88 40 5 63 2 72 -33 90 -26 14 -33 13 -82 -10 -102 -48 -123 -23 -56 63
53 67 68 94 68 120 0 10 10 28 23 39 42 38 71 41 151 14z m-1481 -22 c19 -31
-2 -66 -70 -118 -99 -74 -256 -153 -287 -145 -46 11 -50 28 -16 77 25 38 50
56 138 103 59 31 123 68 142 81 38 26 77 27 93 2z m-2355 -97 c5 -32 -46 -79
-94 -87 -21 -4 -85 -18 -142 -31 -153 -35 -172 -33 -187 27 -5 21 0 34 22 58
45 51 88 61 253 58 142 -2 145 -2 148 -25z m2486 -35 c9 -15 7 -22 -13 -38
-44 -36 -87 -6 -67 47 8 21 66 14 80 -9z m3764 -9 c19 -19 14 -57 -11 -82 -25
-24 -220 -126 -242 -126 -7 0 -26 -11 -42 -24 -37 -31 -65 -39 -96 -27 -45 17
-52 46 -25 99 18 37 35 54 82 80 32 18 80 38 105 44 25 6 62 19 81 30 40 21
130 24 148 6z m-3494 -74 c21 -21 20 -27 -9 -62 -34 -40 -79 -56 -100 -36 -22
23 -18 62 10 89 28 29 76 33 99 9z m-910 -16 c35 -49 4 -121 -68 -163 -51 -30
-66 -31 -97 -6 -22 18 -22 20 -9 62 21 61 87 129 128 129 21 0 36 -7 46 -22z
m4560 12 c21 -8 26 -16 26 -44 0 -42 -32 -76 -139 -148 -42 -29 -92 -64 -111
-79 -51 -40 -198 -111 -223 -107 -49 7 -17 116 50 168 43 33 117 80 127 80 5
0 38 22 75 49 72 52 101 70 140 82 14 4 27 8 28 8 1 1 13 -3 27 -9z m-6309
-74 c19 -29 12 -66 -19 -95 -28 -26 -53 -19 -63 18 -9 32 -6 49 13 79 19 29
50 28 69 -2z m-235 -36 c0 -15 -7 -20 -25 -20 -24 0 -34 18 -18 33 15 15 43 7
43 -13z m4273 -44 c46 -88 10 -227 -86 -330 -54 -58 -87 -67 -121 -32 -21 21
-26 35 -26 78 0 56 9 75 89 178 19 25 45 69 58 98 29 66 55 68 86 8z m2458 5
c34 -34 36 -54 10 -97 -20 -33 -25 -37 -184 -154 -117 -85 -148 -98 -202 -80
-32 10 -35 15 -35 49 0 38 49 131 69 131 6 0 54 30 108 67 115 79 173 113 191
113 8 0 27 -13 43 -29z m-4177 -15 c15 -59 -46 -126 -115 -128 -50 -2 -74 45
-48 93 17 32 70 59 115 59 36 0 43 -4 48 -24z m894 -40 c-2 -16 -10 -21 -32
-21 -37 0 -43 18 -16 45 17 17 24 19 36 9 8 -7 14 -22 12 -33z m-3284 -75 c21
-23 15 -63 -13 -100 -13 -17 -29 -24 -57 -25 -36 -1 -39 1 -42 28 -5 41 5 72
30 96 27 25 60 26 82 1z m1676 -16 c57 -30 51 -86 -13 -109 -123 -45 -147 -40
-147 26 0 79 83 123 160 83z m364 -41 c36 -14 -2 -108 -49 -120 -62 -15 -91
16 -64 69 28 53 65 70 113 51z m1273 -91 c5 -15 -46 -65 -61 -60 -19 6 -19 50
0 64 22 16 56 13 61 -4z m896 -48 c-5 -16 -33 -21 -33 -7 0 13 22 32 31 26 5
-2 6 -11 2 -19z m-439 -141 c13 -34 -29 -134 -67 -159 -13 -8 -48 -19 -78 -25
-47 -9 -56 -8 -67 7 -14 19 -7 72 15 116 28 55 181 102 197 61z m240 -66 c21
-30 20 -61 -5 -110 -16 -32 -19 -50 -14 -87 7 -54 -7 -75 -47 -69 -21 3 -24
10 -31 73 -12 103 -5 185 18 201 28 21 62 17 79 -8z m-6902 -83 c181 -69 248
-106 326 -180 88 -82 147 -165 164 -229 15 -57 58 -102 108 -116 44 -12 56
-24 65 -65 14 -59 124 -222 186 -276 33 -28 74 -77 92 -108 28 -47 38 -56 62
-56 26 0 33 8 65 70 33 65 112 186 149 229 25 28 107 67 128 59 10 -3 37 -21
60 -40 24 -19 81 -52 128 -73 94 -44 101 -53 131 -165 22 -82 25 -305 5 -344
-7 -12 -33 -31 -59 -42 -26 -11 -69 -42 -97 -68 -27 -26 -71 -55 -96 -65 -53
-19 -76 -41 -104 -99 -24 -49 -39 -55 -153 -56 -111 -1 -140 14 -282 158
l-115 116 -33 110 c-21 69 -46 127 -67 156 -18 25 -36 55 -39 66 -7 23 -308
324 -403 404 -35 29 -63 56 -63 61 0 32 -180 197 -239 220 -14 5 -62 46 -106
91 -44 45 -104 102 -133 125 -84 70 -68 123 46 149 84 19 166 9 274 -32z
m3414 -112 c62 -61 118 -125 129 -148 10 -22 37 -71 60 -110 37 -63 54 -111
96 -276 11 -46 11 -163 0 -209 -5 -19 -19 -58 -32 -87 -19 -43 -21 -59 -13
-90 8 -34 14 -39 68 -58 33 -11 64 -28 70 -37 11 -19 9 -28 -50 -180 -33 -86
-35 -118 -8 -118 18 0 106 118 141 189 58 116 232 193 396 175 62 -7 209 -55
236 -77 23 -19 68 -126 91 -218 17 -65 21 -102 17 -164 -8 -137 -54 -223 -135
-255 -31 -12 -82 -62 -82 -80 0 -23 34 -42 64 -36 78 16 151 68 229 165 26 32
51 23 55 -19 7 -107 13 -122 57 -162 50 -45 64 -83 40 -107 -18 -18 -166 -19
-389 -1 -95 8 -156 8 -226 -1 -103 -12 -483 -5 -574 12 -28 5 -125 20 -216 34
-297 45 -383 64 -575 127 l-189 63 -46 59 c-36 47 -64 70 -137 111 -51 28 -99
58 -108 65 -30 25 -125 208 -131 252 -10 70 11 184 39 222 33 43 118 86 169
86 53 0 170 -52 236 -106 30 -24 62 -44 72 -44 10 0 22 -4 25 -10 3 -5 31 -10
60 -10 30 0 70 -7 89 -16 19 -9 42 -14 50 -11 14 6 10 15 -24 58 -22 28 -40
61 -40 73 0 12 -6 30 -14 41 -8 11 -25 54 -39 95 -22 64 -26 95 -28 215 -3
149 5 196 58 340 56 152 81 193 199 324 7 8 41 17 76 21 129 15 114 21 234
-97z m4865 -8 c22 -12 39 -35 59 -78 49 -104 61 -169 67 -352 9 -285 -19 -384
-160 -571 -43 -56 -77 -111 -77 -122 0 -12 11 -29 25 -38 36 -24 55 -11 173
111 62 64 119 113 157 135 134 75 189 100 219 100 17 -1 67 -20 111 -43 93
-50 113 -79 141 -205 18 -83 11 -144 -26 -218 -11 -21 -20 -47 -20 -57 0 -53
-104 -172 -209 -238 -36 -23 -103 -67 -149 -97 -46 -30 -100 -61 -120 -68 -21
-7 -114 -22 -207 -34 -94 -11 -186 -25 -205 -30 -19 -4 -57 -11 -85 -15 -27
-4 -88 -18 -134 -31 -75 -22 -113 -25 -405 -34 -202 -7 -362 -17 -431 -28
-155 -24 -232 -20 -341 15 -49 17 -114 37 -144 46 -70 21 -176 90 -195 127
-20 39 -19 169 1 267 34 165 81 245 171 293 32 17 79 46 105 64 59 42 206 96
260 96 77 0 181 -71 233 -160 27 -46 63 -64 90 -46 25 16 64 118 81 211 19
108 42 192 63 233 10 20 21 50 25 65 8 35 75 173 119 247 18 30 41 76 51 102
19 51 70 102 146 145 25 15 61 40 80 58 62 56 231 144 306 160 81 17 181 12
225 -10z m3867 -11 c15 -10 22 -25 22 -49 0 -28 -9 -41 -52 -80 -29 -26 -87
-63 -128 -82 -41 -20 -92 -51 -112 -69 -20 -18 -56 -38 -80 -45 -24 -6 -55
-18 -71 -25 -15 -8 -46 -19 -70 -24 -58 -12 -156 -46 -192 -67 -16 -9 -61 -40
-100 -69 -87 -64 -125 -84 -165 -84 -23 0 -33 -6 -40 -24 -14 -37 -60 -74
-112 -92 -34 -11 -52 -24 -67 -49 -11 -19 -37 -43 -58 -54 -21 -10 -56 -37
-78 -59 -23 -21 -73 -55 -112 -76 -39 -20 -101 -63 -138 -94 -37 -31 -88 -72
-113 -90 -25 -18 -77 -62 -114 -98 -38 -35 -102 -89 -141 -118 -40 -29 -79
-61 -86 -70 -8 -10 -26 -23 -41 -31 -24 -12 -31 -11 -71 13 -24 15 -57 33 -74
42 -49 25 -47 72 12 191 27 56 56 101 66 105 9 3 38 -2 62 -12 43 -16 47 -16
86 1 92 42 330 339 404 505 46 103 70 127 133 134 26 3 74 13 107 21 33 9 78
19 100 24 55 10 61 15 95 75 27 48 38 56 125 100 52 26 95 51 95 56 0 23 112
74 248 111 219 61 316 80 432 89 174 12 204 11 228 -6z m-2218 -23 c26 -49 -4
-157 -46 -167 -38 -10 -54 12 -54 70 0 57 3 63 45 94 37 27 42 27 55 3z
m-7156 -207 c18 -17 21 -79 6 -118 -5 -15 -21 -32 -36 -38 -39 -18 -58 11 -49
77 10 82 43 115 79 79z m4004 0 c12 -4 22 -12 22 -19 0 -24 -51 -55 -91 -55
-38 0 -73 23 -66 44 9 28 81 44 135 30z m4172 -54 c6 -11 8 -31 4 -45 -5 -21
-12 -25 -40 -25 -19 0 -51 -7 -71 -15 -20 -8 -38 -13 -41 -10 -10 9 101 115
120 115 9 0 22 -9 28 -20z m-6865 -362 c52 -62 70 -142 41 -180 -25 -34 -132
-14 -140 25 -19 92 -11 171 19 194 22 15 43 5 80 -39z m6342 -45 c8 -19 -56
-143 -96 -187 -33 -36 -139 -111 -169 -121 -28 -8 -52 10 -52 39 1 93 192 286
283 286 17 0 30 -7 34 -17z m-6573 1 c19 -7 20 -66 3 -134 -11 -41 -15 -45
-42 -45 -29 0 -30 1 -33 57 -3 63 18 128 42 128 8 0 21 -3 30 -6z m-1089 -107
c7 -27 17 -53 24 -60 6 -6 11 -21 11 -34 0 -32 -45 -32 -61 0 -6 12 -25 36
-41 53 -34 37 -34 63 2 81 39 20 52 12 65 -40z m3801 -202 c9 -21 -14 -45 -42
-45 -24 0 -30 14 -18 44 8 20 53 21 60 1z m-1776 -287 c37 -81 19 -158 -37
-158 -12 0 -33 10 -44 21 -19 19 -21 29 -15 85 9 86 13 94 48 94 24 0 32 -7
48 -42z m-3016 10 c29 -13 40 -39 32 -74 -10 -40 -91 -59 -130 -31 -28 20 -13
73 27 98 38 22 39 22 71 7z m200 -67 c21 -23 15 -49 -19 -81 -21 -20 -28 -22
-50 -12 -32 15 -34 57 -3 89 26 28 49 29 72 4z m316 -145 c16 -7 26 -21 28
-38 3 -22 -2 -28 -32 -38 -38 -12 -71 -7 -98 18 -21 17 -23 53 -6 70 13 13 66
7 108 -12z m-578 -2 c69 -9 149 -26 187 -40 36 -14 84 -30 106 -36 22 -5 49
-14 61 -20 29 -14 147 -56 215 -76 74 -23 108 -47 115 -82 8 -38 27 -44 61
-17 25 20 39 22 138 21 83 0 120 -5 150 -18 22 -10 54 -22 70 -26 17 -5 66
-24 110 -43 92 -41 175 -59 365 -82 74 -9 214 -28 310 -41 96 -14 225 -30 285
-35 61 -6 117 -14 125 -18 8 -5 16 -24 18 -44 2 -27 -1 -37 -15 -41 -10 -3
-137 -6 -283 -7 -208 -2 -290 1 -380 15 -63 10 -158 20 -210 22 -52 3 -104 10
-115 15 -47 21 -193 52 -387 79 -165 24 -234 39 -340 74 -73 24 -153 47 -178
50 -25 4 -67 13 -95 21 -27 8 -88 24 -135 37 -100 26 -236 82 -265 107 -11 10
-40 31 -65 46 -54 34 -60 41 -60 80 0 38 9 51 40 64 34 13 35 13 172 -5z
m8266 -16 c35 -35 6 -84 -148 -242 l-121 -124 -127 -7 c-70 -4 -201 -16 -292
-27 -91 -11 -237 -23 -325 -28 -168 -8 -184 -10 -280 -41 -33 -10 -121 -30
-195 -45 -74 -14 -139 -29 -145 -34 -5 -4 -53 -11 -105 -14 -52 -4 -159 -14
-237 -22 -79 -8 -193 -16 -255 -18 -62 -2 -144 -9 -183 -14 -38 -6 -142 -16
-230 -22 -88 -6 -176 -13 -195 -15 -145 -21 -503 -33 -700 -25 -118 5 -476 11
-795 15 -843 9 -1265 27 -1475 65 -70 13 -76 20 -61 70 21 70 -25 68 801 38
495 -17 928 -15 1070 5 145 21 140 21 542 6 305 -11 344 -11 425 4 61 12 188
20 413 27 356 11 387 13 475 40 33 10 89 21 125 25 36 3 99 13 140 21 41 7
154 21 252 29 97 8 187 19 200 24 54 20 260 61 383 76 72 8 157 22 190 30 33
8 121 29 195 46 74 17 190 53 257 80 170 69 371 107 401 77z m-8501 -175 c21
-11 90 -48 153 -81 63 -33 144 -68 180 -78 36 -9 79 -22 95 -29 17 -7 53 -20
81 -28 28 -8 62 -21 75 -28 13 -6 31 -15 39 -19 8 -4 16 -17 18 -29 4 -22 -5
-32 -119 -136 -61 -57 -103 -109 -114 -143 -5 -18 1 -30 29 -57 21 -19 52 -37
72 -41 28 -5 41 -16 68 -58 35 -54 98 -116 119 -116 7 0 39 16 71 35 32 19 62
35 66 35 20 0 121 87 135 116 20 43 8 69 -69 142 -58 55 -80 108 -59 141 13
20 61 25 121 12 27 -5 66 -6 91 -1 31 5 69 2 135 -11 50 -11 136 -26 191 -35
160 -23 195 -40 195 -94 0 -21 -14 -43 -54 -83 -85 -84 -86 -146 -7 -292 45
-82 107 -131 211 -165 36 -12 75 -28 88 -36 13 -9 60 -19 105 -24 45 -5 109
-18 141 -29 69 -25 94 -26 121 -7 11 7 31 17 45 21 40 12 216 133 254 176 31
34 34 42 25 66 -12 33 -94 186 -124 233 -49 76 -38 116 36 130 55 11 282 16
296 7 14 -9 327 -37 411 -37 37 0 110 -7 162 -15 52 -8 154 -17 225 -21 148
-8 171 -14 187 -49 10 -22 7 -31 -26 -79 -20 -29 -69 -89 -110 -132 -72 -78
-136 -160 -136 -175 0 -8 193 -184 227 -206 12 -8 63 -23 115 -33 l93 -20 103
103 c56 56 114 119 129 139 23 34 24 41 13 68 -14 34 -85 95 -144 125 -91 46
-105 56 -154 110 -59 64 -68 107 -31 141 18 17 37 19 148 19 73 0 145 -6 172
-14 37 -10 78 -11 204 -2 87 6 361 11 609 12 411 0 529 4 742 25 94 9 124 1
124 -32 0 -48 -48 -119 -161 -239 -31 -33 -68 -79 -82 -102 l-27 -42 105 -94
c120 -109 161 -132 265 -148 l75 -11 123 127 c147 152 150 163 73 235 -27 25
-80 61 -118 80 -76 39 -165 116 -183 160 -7 16 -9 41 -6 54 10 40 46 45 596
76 190 11 369 22 398 25 28 4 52 4 52 1 0 -4 -12 -24 -26 -46 -23 -34 -26 -48
-22 -94 5 -62 53 -169 101 -223 52 -59 203 -123 291 -123 23 0 110 13 194 29
142 27 156 31 188 62 43 41 49 77 37 194 -13 118 -50 183 -128 222 -84 43 -99
55 -81 65 29 16 316 28 408 17 85 -10 88 -10 125 15 21 14 44 26 51 26 7 0 38
12 68 26 34 16 62 23 75 19 20 -7 20 -8 3 -33 -49 -75 -115 -207 -128 -256 -8
-31 -26 -71 -40 -88 -52 -70 -53 -153 -2 -322 14 -48 26 -94 26 -101 0 -7 9
-24 20 -38 21 -27 27 -86 10 -116 -12 -24 -70 -47 -194 -76 -56 -13 -126 -33
-157 -44 -65 -22 -116 -30 -504 -81 -33 -4 -72 -12 -87 -18 -14 -6 -108 -22
-208 -37 -101 -14 -191 -30 -201 -35 -17 -9 -114 -22 -424 -56 -77 -8 -187
-24 -245 -36 -75 -15 -147 -21 -255 -23 -109 -1 -164 -6 -200 -18 -166 -55
-462 -80 -638 -53 -119 18 -322 21 -377 6 -45 -12 -96 -18 -245 -30 -143 -11
-684 -32 -694 -26 -3 2 -92 9 -196 15 -105 6 -266 18 -360 27 -213 19 -678 33
-765 22 -45 -6 -91 -4 -150 6 -47 8 -114 20 -150 25 -36 5 -96 17 -135 25 -38
8 -158 24 -265 36 -107 11 -256 31 -330 45 -74 13 -215 36 -313 50 -104 15
-237 43 -320 66 -120 34 -165 53 -287 120 -80 44 -152 88 -161 98 -8 10 -29
26 -46 35 -17 8 -38 23 -47 31 -8 9 -40 22 -70 30 -54 14 -205 93 -258 135
-18 14 -28 31 -28 48 0 25 11 49 85 191 25 46 29 67 33 160 7 158 -11 290 -52
397 -38 97 -38 134 -1 190 16 25 20 26 85 22 41 -3 84 -13 107 -25z m3760
-170 c-7 -43 -23 -63 -50 -63 -30 0 -57 29 -57 61 0 23 5 30 28 35 15 3 32 7
37 8 6 2 18 1 29 -2 15 -4 17 -11 13 -39z m3371 -225 c-7 -20 -48 -23 -48 -4
0 11 9 16 26 16 16 0 24 -5 22 -12z m-6421 -80 c76 -28 113 -65 113 -113 0
-47 -13 -71 -50 -90 -39 -20 -86 -19 -137 4 -82 38 -100 80 -68 159 28 67 52
74 142 40z m6727 -37 c59 -57 58 -137 -3 -195 -24 -23 -50 -32 -143 -51 -63
-12 -124 -27 -136 -34 -83 -44 -212 33 -212 128 0 62 30 102 101 138 95 48
113 52 241 50 l117 -2 35 -34z m-5684 -6 c0 -9 -7 -18 -16 -22 -18 -7 -39 11
-30 26 11 17 46 13 46 -4z m284 -98 c62 -41 81 -114 47 -177 -27 -52 -57 -69
-151 -85 -46 -8 -113 -24 -147 -36 -69 -23 -106 -20 -160 12 -59 37 -79 138
-37 197 19 27 141 90 198 102 70 15 219 7 250 -13z m6183 -92 c6 -22 21 -80
32 -130 17 -71 28 -96 53 -122 l32 -33 -12 -62 c-14 -74 -43 -109 -93 -111
l-34 -2 -5 71 -5 71 -62 51 c-69 57 -81 86 -69 167 8 49 42 96 91 127 42 25
58 19 72 -27z m-2317 -104 c19 -10 53 -24 75 -31 43 -14 105 -55 105 -71 0
-21 -85 -100 -135 -124 -107 -53 -203 -40 -252 34 -28 42 -29 80 -2 125 44 75
138 105 209 67z m-2020 -80 c125 -53 134 -73 68 -138 -61 -60 -138 -93 -215
-93 -55 0 -66 3 -98 31 -19 17 -40 48 -46 69 -11 35 -9 43 14 83 54 92 140
107 277 48z"/>
<path d="M6973 6319 c-8 -8 -10 -43 -7 -108 5 -85 3 -100 -15 -128 -38 -60
-65 -67 -277 -71 -117 -3 -199 0 -210 6 -11 6 -40 13 -66 17 -41 6 -49 5 -55
-11 -10 -27 47 -68 136 -97 166 -55 288 -76 571 -99 27 -2 48 10 104 63 63 58
116 142 116 181 0 52 -100 179 -179 230 -47 29 -99 36 -118 17z"/>
<path d="M3652 2948 c-16 -16 -15 -43 1 -55 6 -6 29 -16 49 -22 30 -10 42 -21
58 -58 11 -25 36 -67 55 -93 19 -26 35 -51 35 -56 0 -4 17 -37 39 -73 21 -36
42 -77 46 -91 4 -14 20 -45 35 -70 26 -42 28 -54 33 -186 6 -145 23 -220 49
-212 7 2 22 22 33 44 44 86 16 306 -50 394 -15 19 -38 58 -52 85 -63 126 -143
244 -217 322 -44 46 -85 83 -91 83 -6 0 -16 -5 -23 -12z"/>
<path d="M8485 3156 c-56 -57 -75 -88 -152 -243 -48 -98 -100 -196 -115 -217
-15 -21 -28 -43 -28 -48 0 -5 -14 -29 -31 -54 -16 -24 -38 -68 -49 -98 -10
-29 -30 -71 -44 -92 -52 -80 -60 -117 -60 -291 -1 -149 1 -164 20 -190 17 -22
30 -29 66 -31 l46 -3 7 248 c8 299 19 350 111 530 35 68 80 161 100 209 44
103 100 193 159 254 46 49 60 76 44 86 -5 3 -39 -24 -74 -60z"/>
<path d="M11495 2960 c-41 -22 -49 -31 -47 -51 4 -32 20 -40 56 -25 40 16 70
58 61 85 -8 25 -7 25 -70 -9z"/>
<path d="M1966 987 c-15 -11 -16 -18 -8 -34 8 -15 25 -22 64 -26 68 -7 198
-62 296 -125 110 -71 174 -101 258 -122 40 -11 84 -24 96 -31 12 -7 43 -18 68
-25 25 -7 70 -22 100 -33 30 -10 134 -31 231 -45 96 -14 218 -37 270 -51 52
-13 106 -25 120 -25 14 0 34 -7 45 -15 10 -8 30 -15 44 -15 14 0 46 -6 71 -14
61 -19 198 -40 464 -72 181 -22 287 -28 600 -34 392 -9 706 -28 880 -55 133
-20 203 -19 365 5 302 46 353 50 615 55 149 3 295 9 325 14 30 5 107 12 170
16 63 3 151 11 195 16 61 8 121 6 251 -5 273 -25 270 -25 644 51 239 48 316
61 465 78 196 22 365 51 412 70 20 9 98 22 173 31 74 8 151 17 170 21 46 8
355 99 377 112 24 12 58 51 66 74 12 32 -18 29 -109 -8 -153 -64 -263 -95
-369 -105 -55 -5 -133 -16 -173 -25 -40 -9 -77 -13 -82 -10 -4 3 -48 -7 -96
-21 -134 -40 -145 -42 -334 -59 -96 -9 -191 -21 -210 -27 -19 -5 -55 -14 -80
-18 -25 -4 -76 -15 -115 -24 -110 -26 -336 -65 -453 -77 -89 -10 -138 -9 -292
4 -102 10 -232 17 -290 17 -103 0 -581 -30 -790 -49 -58 -6 -157 -13 -220 -16
-63 -4 -151 -13 -195 -21 -137 -24 -259 -27 -380 -10 -281 41 -548 60 -865 62
-251 1 -403 15 -785 74 -71 11 -223 33 -337 50 -114 17 -226 37 -248 45 -22 8
-125 26 -228 40 -190 26 -325 57 -442 101 -36 13 -92 31 -124 40 -80 20 -135
45 -215 98 -73 49 -128 75 -235 112 -78 27 -133 31 -160 11z"/>
</g>
</svg>
